<svg width="960" height="640" viewBox="0 0 960 640" xmlns="http://www.w3.org/2000/svg">
  <defs>
    <pattern id="grid" width="48" height="48" patternUnits="userSpaceOnUse">
      <path d="M48 0H0v48" fill="none" stroke="#64748b" stroke-opacity=".1" stroke-width="1"/>
    </pattern>
    <linearGradient id="metal" x1="0" y1="0" x2="1" y2="1">
      <stop stop-color="#172033"/>
      <stop offset=".55" stop-color="#080c13"/>
      <stop offset="1" stop-color="#1f2937"/>
    </linearGradient>
  </defs>
  <rect width="960" height="640" fill="url(#metal)"/>
  <rect x="18" y="18" width="924" height="604" rx="8" fill="url(#grid)" stroke="#64748b" stroke-opacity=".45" stroke-width="3"/>
  <path d="M36 88h888M36 552h888" stroke="#94a3b8" stroke-opacity=".22" stroke-width="2"/>
  <g opacity=".16" stroke="#22c55e" stroke-width="2">
    <path d="M52 54h110M52 54v44M908 54H798M908 54v44M52 586h110M52 586v-44M908 586H798M908 586v-44"/>
  </g>
  <g fill="#94a3b8" opacity=".18">
    <circle cx="52" cy="52" r="7"/>
    <circle cx="908" cy="52" r="7"/>
    <circle cx="52" cy="588" r="7"/>
    <circle cx="908" cy="588" r="7"/>
  </g>
</svg>
