<svg width="96" height="96" viewBox="0 0 96 96" fill="none" xmlns="http://www.w3.org/2000/svg" role="img" aria-labelledby="title desc">
    <title id="title">CodeSurvivor mark</title>
    <desc id="desc">A tactical shield with code brackets and an extraction path.</desc>
    <defs>
        <linearGradient id="shield" x1="20" y1="12" x2="78" y2="86" gradientUnits="userSpaceOnUse">
            <stop stop-color="#34D399"/>
            <stop offset="1" stop-color="#0F766E"/>
        </linearGradient>
        <linearGradient id="inner" x1="28" y1="22" x2="70" y2="76" gradientUnits="userSpaceOnUse">
            <stop stop-color="#0B1220"/>
            <stop offset="1" stop-color="#030712"/>
        </linearGradient>
        <filter id="glow" x="-20" y="-20" width="136" height="136" filterUnits="userSpaceOnUse" color-interpolation-filters="sRGB">
            <feGaussianBlur stdDeviation="3.5" result="blur"/>
            <feColorMatrix in="blur" type="matrix" values="0 0 0 0 0.203 0 0 0 0 0.827 0 0 0 0 0.658 0 0 0 0.65 0"/>
            <feBlend in2="SourceGraphic" mode="screen"/>
        </filter>
    </defs>

    <path d="M48 7L78 18V42C78 61.2 66.6 77.6 48 88C29.4 77.6 18 61.2 18 42V18L48 7Z" fill="url(#shield)" filter="url(#glow)"/>
    <path d="M48 15L70 23V42C70 56.9 61.9 69.7 48 78C34.1 69.7 26 56.9 26 42V23L48 15Z" fill="url(#inner)" stroke="#6EE7B7" stroke-width="2"/>

    <path d="M40 31L29 42L40 53" stroke="#A7F3D0" stroke-width="5" stroke-linecap="round" stroke-linejoin="round"/>
    <path d="M56 31L67 42L56 53" stroke="#A7F3D0" stroke-width="5" stroke-linecap="round" stroke-linejoin="round"/>

    <path d="M48 26V38C48 43.5 43.5 48 38 48H35" stroke="#FCD34D" stroke-width="4" stroke-linecap="round"/>
    <path d="M48 70V58C48 52.5 52.5 48 58 48H61" stroke="#34D399" stroke-width="4" stroke-linecap="round"/>
    <circle cx="48" cy="26" r="4" fill="#FCD34D"/>
    <circle cx="48" cy="70" r="4" fill="#34D399"/>
    <circle cx="48" cy="48" r="5" fill="#E5E7EB"/>
</svg>
